<svg width="216" height="216" viewBox="0 0 216 216" fill="none" xmlns="http://www.w3.org/2000/svg">
<rect width="9.41469" height="9.41469" fill="#6FAF9F"/>
<rect x="18.8293" width="9.41469" height="9.41469" fill="#6FAF9F"/>
<rect x="18.8293" y="18.8295" width="9.41469" height="9.41469" fill="#6FAF9F"/>
<rect x="18.8293" y="37.6588" width="9.41469" height="9.41469" fill="#6FAF9F"/>
<rect x="18.8293" y="56.4882" width="9.41469" height="9.41469" fill="#6FAF9F"/>
<rect x="18.8293" y="75.3176" width="9.41469" height="9.41469" fill="#6FAF9F"/>
<rect x="18.8293" y="94.1469" width="9.41469" height="9.41469" fill="#6FAF9F"/>
<rect x="37.6587" width="9.41469" height="9.41469" fill="#6FAF9F"/>
<rect x="37.6587" y="18.8295" width="9.41469" height="9.41469" fill="#6FAF9F"/>
<rect x="37.6587" y="37.6588" width="9.41469" height="9.41469" fill="#6FAF9F"/>
<rect x="37.6587" y="56.4882" width="9.41469" height="9.41469" fill="#6FAF9F"/>
<rect x="37.6587" y="75.3176" width="9.41469" height="9.41469" fill="#6FAF9F"/>
<rect x="37.6587" y="94.1469" width="9.41469" height="9.41469" fill="#6FAF9F"/>
<rect x="56.488" width="9.41469" height="9.41469" fill="#6FAF9F"/>
<rect x="56.488" y="18.8295" width="9.41469" height="9.41469" fill="#6FAF9F"/>
<rect x="56.488" y="37.6588" width="9.41469" height="9.41469" fill="#6FAF9F"/>
<rect x="56.488" y="56.4882" width="9.41469" height="9.41469" fill="#6FAF9F"/>
<rect x="56.488" y="75.3176" width="9.41469" height="9.41469" fill="#6FAF9F"/>
<rect x="56.488" y="94.1469" width="9.41469" height="9.41469" fill="#6FAF9F"/>
<rect x="75.3176" width="9.41469" height="9.41469" fill="#6FAF9F"/>
<rect x="75.3176" y="18.8295" width="9.41469" height="9.41469" fill="#6FAF9F"/>
<rect x="75.3176" y="37.6588" width="9.41469" height="9.41469" fill="#6FAF9F"/>
<rect x="75.3176" y="56.4882" width="9.41469" height="9.41469" fill="#6FAF9F"/>
<rect x="75.3176" y="75.3176" width="9.41469" height="9.41469" fill="#6FAF9F"/>
<rect x="75.3176" y="94.1469" width="9.41469" height="9.41469" fill="#6FAF9F"/>
<rect x="94.147" width="9.41469" height="9.41469" fill="#6FAF9F"/>
<rect x="94.147" y="18.8295" width="9.41469" height="9.41469" fill="#6FAF9F"/>
<rect x="94.147" y="37.6588" width="9.41469" height="9.41469" fill="#6FAF9F"/>
<rect x="94.147" y="56.4882" width="9.41469" height="9.41469" fill="#6FAF9F"/>
<rect x="94.147" y="75.3176" width="9.41469" height="9.41469" fill="#6FAF9F"/>
<rect x="94.147" y="94.1469" width="9.41469" height="9.41469" fill="#6FAF9F"/>
<rect y="18.8295" width="9.41469" height="9.41469" fill="#6FAF9F"/>
<rect y="37.6588" width="9.41469" height="9.41469" fill="#6FAF9F"/>
<rect y="56.4882" width="9.41469" height="9.41469" fill="#6FAF9F"/>
<rect y="75.3176" width="9.41469" height="9.41469" fill="#6FAF9F"/>
<rect y="94.1469" width="9.41469" height="9.41469" fill="#6FAF9F"/>
<rect y="112.438" width="9.41469" height="9.41469" fill="#6FAF9F"/>
<rect x="18.8293" y="112.438" width="9.41469" height="9.41469" fill="#6FAF9F"/>
<rect x="18.8293" y="131.268" width="9.41469" height="9.41469" fill="#6FAF9F"/>
<rect x="18.8293" y="150.097" width="9.41469" height="9.41469" fill="#6FAF9F"/>
<rect x="18.8293" y="168.927" width="9.41469" height="9.41469" fill="#6FAF9F"/>
<rect x="18.8293" y="187.756" width="9.41469" height="9.41469" fill="#6FAF9F"/>
<rect x="18.8293" y="206.585" width="9.41469" height="9.41469" fill="#6FAF9F"/>
<rect x="37.6587" y="112.438" width="9.41469" height="9.41469" fill="#6FAF9F"/>
<rect x="37.6587" y="131.268" width="9.41469" height="9.41469" fill="#6FAF9F"/>
<rect x="37.6587" y="150.097" width="9.41469" height="9.41469" fill="#6FAF9F"/>
<rect x="37.6587" y="168.927" width="9.41469" height="9.41469" fill="#6FAF9F"/>
<rect x="37.6587" y="187.756" width="9.41469" height="9.41469" fill="#6FAF9F"/>
<rect x="37.6587" y="206.585" width="9.41469" height="9.41469" fill="#6FAF9F"/>
<rect x="56.488" y="112.438" width="9.41469" height="9.41469" fill="#6FAF9F"/>
<rect x="56.488" y="131.268" width="9.41469" height="9.41469" fill="#6FAF9F"/>
<rect x="56.488" y="150.097" width="9.41469" height="9.41469" fill="#6FAF9F"/>
<rect x="56.488" y="168.927" width="9.41469" height="9.41469" fill="#6FAF9F"/>
<rect x="56.488" y="187.756" width="9.41469" height="9.41469" fill="#6FAF9F"/>
<rect x="56.488" y="206.585" width="9.41469" height="9.41469" fill="#6FAF9F"/>
<rect x="75.3176" y="112.438" width="9.41469" height="9.41469" fill="#6FAF9F"/>
<rect x="75.3176" y="131.268" width="9.41469" height="9.41469" fill="#6FAF9F"/>
<rect x="75.3176" y="150.097" width="9.41469" height="9.41469" fill="#6FAF9F"/>
<rect x="75.3176" y="168.927" width="9.41469" height="9.41469" fill="#6FAF9F"/>
<rect x="75.3176" y="187.756" width="9.41469" height="9.41469" fill="#6FAF9F"/>
<rect x="75.3176" y="206.585" width="9.41469" height="9.41469" fill="#6FAF9F"/>
<rect x="94.147" y="112.438" width="9.41469" height="9.41469" fill="#6FAF9F"/>
<rect x="94.147" y="131.268" width="9.41469" height="9.41469" fill="#6FAF9F"/>
<rect x="94.147" y="150.097" width="9.41469" height="9.41469" fill="#6FAF9F"/>
<rect x="94.147" y="168.927" width="9.41469" height="9.41469" fill="#6FAF9F"/>
<rect x="94.147" y="187.756" width="9.41469" height="9.41469" fill="#6FAF9F"/>
<rect x="94.147" y="206.585" width="9.41469" height="9.41469" fill="#6FAF9F"/>
<rect y="131.268" width="9.41469" height="9.41469" fill="#6FAF9F"/>
<rect y="150.097" width="9.41469" height="9.41469" fill="#6FAF9F"/>
<rect y="168.927" width="9.41469" height="9.41469" fill="#6FAF9F"/>
<rect y="187.756" width="9.41469" height="9.41469" fill="#6FAF9F"/>
<rect y="206.585" width="9.41469" height="9.41469" fill="#6FAF9F"/>
<rect x="112.438" width="9.41469" height="9.41469" fill="#6FAF9F"/>
<rect x="131.268" width="9.41469" height="9.41469" fill="#6FAF9F"/>
<rect x="131.268" y="18.8295" width="9.41469" height="9.41469" fill="#6FAF9F"/>
<rect x="131.268" y="37.6588" width="9.41469" height="9.41469" fill="#6FAF9F"/>
<rect x="131.268" y="56.4882" width="9.41469" height="9.41469" fill="#6FAF9F"/>
<rect x="131.268" y="75.3176" width="9.41469" height="9.41469" fill="#6FAF9F"/>
<rect x="131.268" y="94.1469" width="9.41469" height="9.41469" fill="#6FAF9F"/>
<rect x="150.097" width="9.41469" height="9.41469" fill="#6FAF9F"/>
<rect x="150.097" y="18.8295" width="9.41469" height="9.41469" fill="#6FAF9F"/>
<rect x="150.097" y="37.6588" width="9.41469" height="9.41469" fill="#6FAF9F"/>
<rect x="150.097" y="56.4882" width="9.41469" height="9.41469" fill="#6FAF9F"/>
<rect x="150.097" y="75.3176" width="9.41469" height="9.41469" fill="#6FAF9F"/>
<rect x="150.097" y="94.1469" width="9.41469" height="9.41469" fill="#6FAF9F"/>
<rect x="168.927" width="9.41469" height="9.41469" fill="#6FAF9F"/>
<rect x="168.927" y="18.8295" width="9.41469" height="9.41469" fill="#6FAF9F"/>
<rect x="168.927" y="37.6588" width="9.41469" height="9.41469" fill="#6FAF9F"/>
<rect x="168.927" y="56.4882" width="9.41469" height="9.41469" fill="#6FAF9F"/>
<rect x="168.927" y="75.3176" width="9.41469" height="9.41469" fill="#6FAF9F"/>
<rect x="168.927" y="94.1469" width="9.41469" height="9.41469" fill="#6FAF9F"/>
<rect x="187.756" width="9.41469" height="9.41469" fill="#6FAF9F"/>
<rect x="187.756" y="18.8295" width="9.41469" height="9.41469" fill="#6FAF9F"/>
<rect x="187.756" y="37.6588" width="9.41469" height="9.41469" fill="#6FAF9F"/>
<rect x="187.756" y="56.4882" width="9.41469" height="9.41469" fill="#6FAF9F"/>
<rect x="187.756" y="75.3176" width="9.41469" height="9.41469" fill="#6FAF9F"/>
<rect x="187.756" y="94.1469" width="9.41469" height="9.41469" fill="#6FAF9F"/>
<rect x="206.585" width="9.41469" height="9.41469" fill="#6FAF9F"/>
<rect x="206.585" y="18.8295" width="9.41469" height="9.41469" fill="#6FAF9F"/>
<rect x="206.585" y="37.6588" width="9.41469" height="9.41469" fill="#6FAF9F"/>
<rect x="206.585" y="56.4882" width="9.41469" height="9.41469" fill="#6FAF9F"/>
<rect x="206.585" y="75.3176" width="9.41469" height="9.41469" fill="#6FAF9F"/>
<rect x="206.585" y="94.1469" width="9.41469" height="9.41469" fill="#6FAF9F"/>
<rect x="112.438" y="18.8295" width="9.41469" height="9.41469" fill="#6FAF9F"/>
<rect x="112.438" y="37.6588" width="9.41469" height="9.41469" fill="#6FAF9F"/>
<rect x="112.438" y="56.4882" width="9.41469" height="9.41469" fill="#6FAF9F"/>
<rect x="112.438" y="75.3176" width="9.41469" height="9.41469" fill="#6FAF9F"/>
<rect x="112.438" y="94.1469" width="9.41469" height="9.41469" fill="#6FAF9F"/>
<rect x="112.438" y="112.438" width="9.41469" height="9.41469" fill="#6FAF9F"/>
<rect x="131.268" y="112.438" width="9.41469" height="9.41469" fill="#6FAF9F"/>
<rect x="131.268" y="131.268" width="9.41469" height="9.41469" fill="#6FAF9F"/>
<rect x="131.268" y="150.097" width="9.41469" height="9.41469" fill="#6FAF9F"/>
<rect x="131.268" y="168.927" width="9.41469" height="9.41469" fill="#6FAF9F"/>
<rect x="131.268" y="187.756" width="9.41469" height="9.41469" fill="#6FAF9F"/>
<rect x="131.268" y="206.585" width="9.41469" height="9.41469" fill="#6FAF9F"/>
<rect x="150.097" y="112.438" width="9.41469" height="9.41469" fill="#6FAF9F"/>
<rect x="150.097" y="131.268" width="9.41469" height="9.41469" fill="#6FAF9F"/>
<rect x="150.097" y="150.097" width="9.41469" height="9.41469" fill="#6FAF9F"/>
<rect x="150.097" y="168.927" width="9.41469" height="9.41469" fill="#6FAF9F"/>
<rect x="150.097" y="187.756" width="9.41469" height="9.41469" fill="#6FAF9F"/>
<rect x="150.097" y="206.585" width="9.41469" height="9.41469" fill="#6FAF9F"/>
<rect x="168.927" y="112.438" width="9.41469" height="9.41469" fill="#6FAF9F"/>
<rect x="168.927" y="131.268" width="9.41469" height="9.41469" fill="#6FAF9F"/>
<rect x="168.927" y="150.097" width="9.41469" height="9.41469" fill="#6FAF9F"/>
<rect x="168.927" y="168.927" width="9.41469" height="9.41469" fill="#6FAF9F"/>
<rect x="168.927" y="187.756" width="9.41469" height="9.41469" fill="#6FAF9F"/>
<rect x="168.927" y="206.585" width="9.41469" height="9.41469" fill="#6FAF9F"/>
<rect x="187.756" y="112.438" width="9.41469" height="9.41469" fill="#6FAF9F"/>
<rect x="187.756" y="131.268" width="9.41469" height="9.41469" fill="#6FAF9F"/>
<rect x="187.756" y="150.097" width="9.41469" height="9.41469" fill="#6FAF9F"/>
<rect x="187.756" y="168.927" width="9.41469" height="9.41469" fill="#6FAF9F"/>
<rect x="187.756" y="187.756" width="9.41469" height="9.41469" fill="#6FAF9F"/>
<rect x="187.756" y="206.585" width="9.41469" height="9.41469" fill="#6FAF9F"/>
<rect x="206.585" y="112.438" width="9.41469" height="9.41469" fill="#6FAF9F"/>
<rect x="206.585" y="131.268" width="9.41469" height="9.41469" fill="#6FAF9F"/>
<rect x="206.585" y="150.097" width="9.41469" height="9.41469" fill="#6FAF9F"/>
<rect x="206.585" y="168.927" width="9.41469" height="9.41469" fill="#6FAF9F"/>
<rect x="206.585" y="187.756" width="9.41469" height="9.41469" fill="#6FAF9F"/>
<rect x="206.585" y="206.585" width="9.41469" height="9.41469" fill="#6FAF9F"/>
<rect x="112.438" y="131.268" width="9.41469" height="9.41469" fill="#6FAF9F"/>
<rect x="112.438" y="150.097" width="9.41469" height="9.41469" fill="#6FAF9F"/>
<rect x="112.438" y="168.927" width="9.41469" height="9.41469" fill="#6FAF9F"/>
<rect x="112.438" y="187.756" width="9.41469" height="9.41469" fill="#6FAF9F"/>
<rect x="112.438" y="206.585" width="9.41469" height="9.41469" fill="#6FAF9F"/>
</svg>
