<svg width="146" height="216" viewBox="0 0 146 216" fill="none" xmlns="http://www.w3.org/2000/svg">
<rect x="5.31763" width="9.41469" height="9.41469" fill="#6FAF9F"/>
<rect x="5.31763" y="18.8294" width="9.41469" height="9.41469" fill="#6FAF9F"/>
<rect x="5.31763" y="37.6588" width="9.41469" height="9.41469" fill="#6FAF9F"/>
<rect x="5.31763" y="56.4881" width="9.41469" height="9.41469" fill="#6FAF9F"/>
<rect x="5.31763" y="75.3176" width="9.41469" height="9.41469" fill="#6FAF9F"/>
<rect x="5.31763" y="94.1469" width="9.41469" height="9.41469" fill="#6FAF9F"/>
<rect x="24.147" width="9.41469" height="9.41469" fill="#6FAF9F"/>
<rect x="24.147" y="18.8294" width="9.41469" height="9.41469" fill="#6FAF9F"/>
<rect x="24.147" y="37.6588" width="9.41469" height="9.41469" fill="#6FAF9F"/>
<rect x="24.147" y="56.4881" width="9.41469" height="9.41469" fill="#6FAF9F"/>
<rect x="24.147" y="75.3176" width="9.41469" height="9.41469" fill="#6FAF9F"/>
<rect x="24.147" y="94.1469" width="9.41469" height="9.41469" fill="#6FAF9F"/>
<rect x="5.31763" y="112.438" width="9.41469" height="9.41469" fill="#6FAF9F"/>
<rect x="5.31763" y="131.268" width="9.41469" height="9.41469" fill="#6FAF9F"/>
<rect x="5.31763" y="150.097" width="9.41469" height="9.41469" fill="#6FAF9F"/>
<rect x="5.31763" y="168.927" width="9.41469" height="9.41469" fill="#6FAF9F"/>
<rect x="5.31763" y="187.756" width="9.41469" height="9.41469" fill="#6FAF9F"/>
<rect x="5.31763" y="206.585" width="9.41469" height="9.41469" fill="#6FAF9F"/>
<rect x="24.147" y="112.438" width="9.41469" height="9.41469" fill="#6FAF9F"/>
<rect x="24.147" y="131.268" width="9.41469" height="9.41469" fill="#6FAF9F"/>
<rect x="24.147" y="150.097" width="9.41469" height="9.41469" fill="#6FAF9F"/>
<rect x="24.147" y="168.927" width="9.41469" height="9.41469" fill="#6FAF9F"/>
<rect x="24.147" y="187.756" width="9.41469" height="9.41469" fill="#6FAF9F"/>
<rect x="24.147" y="206.585" width="9.41469" height="9.41469" fill="#6FAF9F"/>
<rect x="42.4385" width="9.41469" height="9.41469" fill="#6FAF9F"/>
<rect x="61.2678" width="9.41469" height="9.41469" fill="#6FAF9F"/>
<rect x="61.2678" y="18.8294" width="9.41469" height="9.41469" fill="#6FAF9F"/>
<rect x="61.2678" y="37.6588" width="9.41469" height="9.41469" fill="#6FAF9F"/>
<rect x="61.2678" y="56.4881" width="9.41469" height="9.41469" fill="#6FAF9F"/>
<rect x="61.2678" y="75.3176" width="9.41469" height="9.41469" fill="#6FAF9F"/>
<rect x="61.2678" y="94.1469" width="9.41469" height="9.41469" fill="#6FAF9F"/>
<rect x="80.0972" width="9.41469" height="9.41469" fill="#6FAF9F"/>
<rect x="80.0972" y="18.8294" width="9.41469" height="9.41469" fill="#6FAF9F"/>
<rect x="80.0972" y="37.6588" width="9.41469" height="9.41469" fill="#6FAF9F"/>
<rect x="80.0972" y="56.4881" width="9.41469" height="9.41469" fill="#6FAF9F"/>
<rect x="80.0972" y="75.3176" width="9.41469" height="9.41469" fill="#6FAF9F"/>
<rect x="80.0972" y="94.1469" width="9.41469" height="9.41469" fill="#6FAF9F"/>
<rect x="98.9268" width="9.41469" height="9.41469" fill="#6FAF9F"/>
<rect x="98.9268" y="18.8294" width="9.41469" height="9.41469" fill="#6FAF9F"/>
<rect x="98.9268" y="37.6588" width="9.41469" height="9.41469" fill="#6FAF9F"/>
<rect x="98.9268" y="56.4881" width="9.41469" height="9.41469" fill="#6FAF9F"/>
<rect x="98.9268" y="75.3176" width="9.41469" height="9.41469" fill="#6FAF9F"/>
<rect x="98.9268" y="94.1469" width="9.41469" height="9.41469" fill="#6FAF9F"/>
<rect x="117.756" width="9.41469" height="9.41469" fill="#6FAF9F"/>
<rect x="117.756" y="18.8294" width="9.41469" height="9.41469" fill="#6FAF9F"/>
<rect x="117.756" y="37.6588" width="9.41469" height="9.41469" fill="#6FAF9F"/>
<rect x="117.756" y="56.4881" width="9.41469" height="9.41469" fill="#6FAF9F"/>
<rect x="117.756" y="75.3176" width="9.41469" height="9.41469" fill="#6FAF9F"/>
<rect x="117.756" y="94.1469" width="9.41469" height="9.41469" fill="#6FAF9F"/>
<rect x="136.585" width="9.41469" height="9.41469" fill="#6FAF9F"/>
<rect x="136.585" y="18.8294" width="9.41469" height="9.41469" fill="#6FAF9F"/>
<rect x="136.585" y="37.6588" width="9.41469" height="9.41469" fill="#6FAF9F"/>
<rect x="136.585" y="56.4881" width="9.41469" height="9.41469" fill="#6FAF9F"/>
<rect x="136.585" y="75.3176" width="9.41469" height="9.41469" fill="#6FAF9F"/>
<rect x="136.585" y="94.1469" width="9.41469" height="9.41469" fill="#6FAF9F"/>
<rect x="42.4385" y="18.8294" width="9.41469" height="9.41469" fill="#6FAF9F"/>
<rect x="42.4385" y="37.6588" width="9.41469" height="9.41469" fill="#6FAF9F"/>
<rect x="42.4385" y="56.4881" width="9.41469" height="9.41469" fill="#6FAF9F"/>
<rect x="42.4385" y="75.3176" width="9.41469" height="9.41469" fill="#6FAF9F"/>
<rect x="42.4385" y="94.1469" width="9.41469" height="9.41469" fill="#6FAF9F"/>
<rect x="42.4385" y="112.438" width="9.41469" height="9.41469" fill="#6FAF9F"/>
<rect x="61.2678" y="112.438" width="9.41469" height="9.41469" fill="#6FAF9F"/>
<rect x="61.2678" y="131.268" width="9.41469" height="9.41469" fill="#6FAF9F"/>
<rect x="61.2678" y="150.097" width="9.41469" height="9.41469" fill="#6FAF9F"/>
<rect x="61.2678" y="168.927" width="9.41469" height="9.41469" fill="#6FAF9F"/>
<rect x="61.2678" y="187.756" width="9.41469" height="9.41469" fill="#6FAF9F"/>
<rect x="61.2678" y="206.585" width="9.41469" height="9.41469" fill="#6FAF9F"/>
<rect x="80.0972" y="112.438" width="9.41469" height="9.41469" fill="#6FAF9F"/>
<rect x="80.0972" y="131.268" width="9.41469" height="9.41469" fill="#6FAF9F"/>
<rect x="80.0972" y="150.097" width="9.41469" height="9.41469" fill="#6FAF9F"/>
<rect x="80.0972" y="168.927" width="9.41469" height="9.41469" fill="#6FAF9F"/>
<rect x="80.0972" y="187.756" width="9.41469" height="9.41469" fill="#6FAF9F"/>
<rect x="80.0972" y="206.585" width="9.41469" height="9.41469" fill="#6FAF9F"/>
<rect x="98.9268" y="112.438" width="9.41469" height="9.41469" fill="#6FAF9F"/>
<rect x="98.9268" y="131.268" width="9.41469" height="9.41469" fill="#6FAF9F"/>
<rect x="98.9268" y="150.097" width="9.41469" height="9.41469" fill="#6FAF9F"/>
<rect x="98.9268" y="168.927" width="9.41469" height="9.41469" fill="#6FAF9F"/>
<rect x="98.9268" y="187.756" width="9.41469" height="9.41469" fill="#6FAF9F"/>
<rect x="98.9268" y="206.585" width="9.41469" height="9.41469" fill="#6FAF9F"/>
<rect x="117.756" y="112.438" width="9.41469" height="9.41469" fill="#6FAF9F"/>
<rect x="117.756" y="131.268" width="9.41469" height="9.41469" fill="#6FAF9F"/>
<rect x="117.756" y="150.097" width="9.41469" height="9.41469" fill="#6FAF9F"/>
<rect x="117.756" y="168.927" width="9.41469" height="9.41469" fill="#6FAF9F"/>
<rect x="117.756" y="187.756" width="9.41469" height="9.41469" fill="#6FAF9F"/>
<rect x="117.756" y="206.585" width="9.41469" height="9.41469" fill="#6FAF9F"/>
<rect x="136.585" y="112.438" width="9.41469" height="9.41469" fill="#6FAF9F"/>
<rect x="136.585" y="131.268" width="9.41469" height="9.41469" fill="#6FAF9F"/>
<rect x="136.585" y="150.097" width="9.41469" height="9.41469" fill="#6FAF9F"/>
<rect x="136.585" y="168.927" width="9.41469" height="9.41469" fill="#6FAF9F"/>
<rect x="136.585" y="187.756" width="9.41469" height="9.41469" fill="#6FAF9F"/>
<rect x="136.585" y="206.585" width="9.41469" height="9.41469" fill="#6FAF9F"/>
<rect x="42.4385" y="131.268" width="9.41469" height="9.41469" fill="#6FAF9F"/>
<rect x="42.4385" y="150.097" width="9.41469" height="9.41469" fill="#6FAF9F"/>
<rect x="42.4385" y="168.927" width="9.41469" height="9.41469" fill="#6FAF9F"/>
<rect x="42.4385" y="187.756" width="9.41469" height="9.41469" fill="#6FAF9F"/>
<rect x="42.4385" y="206.585" width="9.41469" height="9.41469" fill="#6FAF9F"/>
</svg>
