<svg width="108" height="216" viewBox="0 0 108 216" fill="none" xmlns="http://www.w3.org/2000/svg">
<rect width="9.41469" height="9.41469" fill="white"/>
<rect x="18.8296" width="9.41469" height="9.41469" fill="white"/>
<rect x="18.8296" y="18.8293" width="9.41469" height="9.41469" fill="white"/>
<rect x="18.8296" y="37.6589" width="9.41469" height="9.41469" fill="white"/>
<rect x="18.8296" y="56.488" width="9.41469" height="9.41469" fill="white"/>
<rect x="18.8296" y="75.3176" width="9.41469" height="9.41469" fill="white"/>
<rect x="18.8296" y="94.1467" width="9.41469" height="9.41469" fill="white"/>
<rect x="37.6587" width="9.41469" height="9.41469" fill="white"/>
<rect x="37.6587" y="18.8293" width="9.41469" height="9.41469" fill="white"/>
<rect x="37.6587" y="37.6589" width="9.41469" height="9.41469" fill="white"/>
<rect x="37.6587" y="56.488" width="9.41469" height="9.41469" fill="white"/>
<rect x="37.6587" y="75.3176" width="9.41469" height="9.41469" fill="white"/>
<rect x="37.6587" y="94.1467" width="9.41469" height="9.41469" fill="white"/>
<rect x="56.4883" width="9.41469" height="9.41469" fill="white"/>
<rect x="56.4883" y="18.8293" width="9.41469" height="9.41469" fill="white"/>
<rect x="56.4883" y="37.6589" width="9.41469" height="9.41469" fill="white"/>
<rect x="56.4883" y="56.488" width="9.41469" height="9.41469" fill="white"/>
<rect x="56.4883" y="75.3176" width="9.41469" height="9.41469" fill="white"/>
<rect x="56.4883" y="94.1467" width="9.41469" height="9.41469" fill="white"/>
<rect x="75.3174" width="9.41469" height="9.41469" fill="white"/>
<rect x="75.3174" y="18.8293" width="9.41469" height="9.41469" fill="white"/>
<rect x="75.3174" y="37.6589" width="9.41469" height="9.41469" fill="white"/>
<rect x="75.3174" y="56.488" width="9.41469" height="9.41469" fill="white"/>
<rect x="75.3174" y="75.3176" width="9.41469" height="9.41469" fill="white"/>
<rect x="75.3174" y="94.1467" width="9.41469" height="9.41469" fill="white"/>
<rect x="94.147" width="9.41469" height="9.41469" fill="white"/>
<rect x="94.147" y="18.8293" width="9.41469" height="9.41469" fill="white"/>
<rect x="94.147" y="37.6589" width="9.41469" height="9.41469" fill="white"/>
<rect x="94.147" y="56.488" width="9.41469" height="9.41469" fill="white"/>
<rect x="94.147" y="75.3176" width="9.41469" height="9.41469" fill="white"/>
<rect x="94.147" y="94.1467" width="9.41469" height="9.41469" fill="white"/>
<rect y="18.8293" width="9.41469" height="9.41469" fill="white"/>
<rect y="37.6589" width="9.41469" height="9.41469" fill="white"/>
<rect y="56.488" width="9.41469" height="9.41469" fill="white"/>
<rect y="75.3176" width="9.41469" height="9.41469" fill="white"/>
<rect y="94.1467" width="9.41469" height="9.41469" fill="white"/>
<rect y="112.438" width="9.41469" height="9.41469" fill="white"/>
<rect x="18.8296" y="112.438" width="9.41469" height="9.41469" fill="white"/>
<rect x="18.8296" y="131.268" width="9.41469" height="9.41469" fill="white"/>
<rect x="18.8296" y="150.097" width="9.41469" height="9.41469" fill="white"/>
<rect x="18.8296" y="168.927" width="9.41469" height="9.41469" fill="white"/>
<rect x="18.8296" y="187.756" width="9.41469" height="9.41469" fill="white"/>
<rect x="18.8296" y="206.585" width="9.41469" height="9.41469" fill="white"/>
<rect x="37.6587" y="112.438" width="9.41469" height="9.41469" fill="white"/>
<rect x="37.6587" y="131.268" width="9.41469" height="9.41469" fill="white"/>
<rect x="37.6587" y="150.097" width="9.41469" height="9.41469" fill="white"/>
<rect x="37.6587" y="168.927" width="9.41469" height="9.41469" fill="white"/>
<rect x="37.6587" y="187.756" width="9.41469" height="9.41469" fill="white"/>
<rect x="37.6587" y="206.585" width="9.41469" height="9.41469" fill="white"/>
<rect x="56.4883" y="112.438" width="9.41469" height="9.41469" fill="white"/>
<rect x="56.4883" y="131.268" width="9.41469" height="9.41469" fill="white"/>
<rect x="56.4883" y="150.097" width="9.41469" height="9.41469" fill="white"/>
<rect x="56.4883" y="168.927" width="9.41469" height="9.41469" fill="white"/>
<rect x="56.4883" y="187.756" width="9.41469" height="9.41469" fill="white"/>
<rect x="56.4883" y="206.585" width="9.41469" height="9.41469" fill="white"/>
<rect x="75.3174" y="112.438" width="9.41469" height="9.41469" fill="white"/>
<rect x="75.3174" y="131.268" width="9.41469" height="9.41469" fill="white"/>
<rect x="75.3174" y="150.097" width="9.41469" height="9.41469" fill="white"/>
<rect x="75.3174" y="168.927" width="9.41469" height="9.41469" fill="white"/>
<rect x="75.3174" y="187.756" width="9.41469" height="9.41469" fill="white"/>
<rect x="75.3174" y="206.585" width="9.41469" height="9.41469" fill="white"/>
<rect x="94.147" y="112.438" width="9.41469" height="9.41469" fill="white"/>
<rect x="94.147" y="131.268" width="9.41469" height="9.41469" fill="white"/>
<rect x="94.147" y="150.097" width="9.41469" height="9.41469" fill="white"/>
<rect x="94.147" y="168.927" width="9.41469" height="9.41469" fill="white"/>
<rect x="94.147" y="187.756" width="9.41469" height="9.41469" fill="white"/>
<rect x="94.147" y="206.585" width="9.41469" height="9.41469" fill="white"/>
<rect y="131.268" width="9.41469" height="9.41469" fill="white"/>
<rect y="150.097" width="9.41469" height="9.41469" fill="white"/>
<rect y="168.927" width="9.41469" height="9.41469" fill="white"/>
<rect y="187.756" width="9.41469" height="9.41469" fill="white"/>
<rect y="206.585" width="9.41469" height="9.41469" fill="white"/>
</svg>
