<svg width="25" height="25" viewBox="0 0 25 25" fill="none" xmlns="http://www.w3.org/2000/svg">
<g clip-path="url(#clip0)">
<path d="M21.5961 2.2547H3.40405C1.79887 2.2547 0.497559 3.55602 0.497559 5.1612V22.0935C0.497559 23.6987 1.79887 25 3.40405 25H21.5961C23.2013 25 24.5026 23.6987 24.5026 22.0935V5.1612C24.5026 3.55593 23.2013 2.2547 21.5961 2.2547Z" fill="#EBF0F3"/>
<path d="M24.5026 7.7157V4.19403C24.5026 2.58885 23.2013 1.28754 21.5961 1.28754H3.40405C1.79887 1.28754 0.497559 2.58885 0.497559 4.19403V7.7157H24.5026Z" fill="#CE412D"/>
<path d="M24.5026 8.37272V5.16119C24.5026 3.55601 23.2013 2.2547 21.5961 2.2547H3.40405C1.79887 2.2547 0.497559 3.55601 0.497559 5.16119V8.37272H24.5026Z" fill="#E56353"/>
<path d="M5.25832 3.81567C4.69807 3.81567 4.2439 4.26984 4.2439 4.83009C4.2439 5.39034 4.69807 5.84443 5.25832 5.84443C5.81857 5.84443 6.27265 5.39026 6.27265 4.83009C6.27273 4.26984 5.81857 3.81567 5.25832 3.81567Z" fill="#D15241"/>
<path d="M5.25827 0C4.95859 0 4.71558 0.243009 4.71558 0.542695V4.77098C4.71558 5.07075 4.95859 5.31368 5.25827 5.31368C5.55796 5.31368 5.80097 5.07075 5.80097 4.77098V0.542695C5.80097 0.243009 5.55804 0 5.25827 0V0Z" fill="#4D5C7D"/>
<path d="M10.0862 3.81567C9.52595 3.81567 9.07178 4.26984 9.07178 4.83009C9.07178 5.39034 9.52595 5.84443 10.0862 5.84443C10.6464 5.84443 11.1005 5.39026 11.1005 4.83009C11.1006 4.26984 10.6464 3.81567 10.0862 3.81567Z" fill="#D15241"/>
<path d="M10.0862 0C9.78647 0 9.54346 0.243009 9.54346 0.542695V4.77098C9.54346 5.07075 9.78647 5.31368 10.0862 5.31368C10.3858 5.31368 10.6288 5.07075 10.6288 4.77098V0.542695C10.6288 0.243009 10.3858 0 10.0862 0V0Z" fill="#4D5C7D"/>
<path d="M14.9141 3.81567C14.3538 3.81567 13.8997 4.26984 13.8997 4.83009C13.8997 5.39034 14.3538 5.84443 14.9141 5.84443C15.4743 5.84443 15.9284 5.39026 15.9284 4.83009C15.9284 4.26984 15.4743 3.81567 14.9141 3.81567Z" fill="#D15241"/>
<path d="M14.914 0C14.6143 0 14.3713 0.243009 14.3713 0.542695V4.77098C14.3713 5.07075 14.6143 5.31368 14.914 5.31368C15.2137 5.31368 15.4567 5.07075 15.4567 4.77098V0.542695C15.4567 0.243009 15.2137 0 14.914 0V0Z" fill="#4D5C7D"/>
<path d="M19.7417 3.81567C19.1815 3.81567 18.7273 4.26984 18.7273 4.83009C18.7273 5.39034 19.1815 5.84443 19.7417 5.84443C20.302 5.84443 20.756 5.39026 20.756 4.83009C20.756 4.26984 20.3019 3.81567 19.7417 3.81567Z" fill="#D15241"/>
<path d="M19.7417 0C19.442 0 19.199 0.243009 19.199 0.542695V4.77098C19.199 5.07075 19.442 5.31368 19.7417 5.31368C20.0413 5.31368 20.2844 5.07075 20.2844 4.77098V0.542695C20.2844 0.243009 20.0414 0 19.7417 0V0Z" fill="#4D5C7D"/>
<path d="M9.35474 12.3885H11.5487V14.5824H9.35474V12.3885Z" fill="#E56353"/>
<path d="M13.4514 12.3885H15.6453V14.5824H13.4514V12.3885Z" fill="#E56353"/>
<path d="M17.5479 12.3885H19.7418V14.5824H17.5479V12.3885Z" fill="#E56353"/>
<path d="M5.2583 15.8278H7.45224V18.0217H5.2583V15.8278Z" fill="#E56353"/>
<path d="M9.35474 15.8278H11.5487V18.0217H9.35474V15.8278Z" fill="#E56353"/>
<path d="M13.4514 15.8278H15.6453V18.0217H13.4514V15.8278Z" fill="#E56353"/>
<path d="M17.5479 15.8278H19.7418V18.0217H17.5479V15.8278Z" fill="#E56353"/>
<path d="M5.2583 19.2671H7.45224V21.4611H5.2583V19.2671Z" fill="#E56353"/>
<path d="M9.35474 19.2671H11.5487V21.4611H9.35474V19.2671Z" fill="#E56353"/>
<path d="M13.4514 19.2671H15.6453V21.4611H13.4514V19.2671Z" fill="#E56353"/>
</g>
<defs>
<clipPath id="clip0">
<rect width="25" height="25" fill="white"/>
</clipPath>
</defs>
</svg>
