<svg width="150" height="76" viewBox="0 0 150 76" fill="none" xmlns="http://www.w3.org/2000/svg">
<path d="M4.68738 9.875H145.312C147.9 9.875 150 7.77484 150 5.18763C150 2.60002 147.899 0.500244 145.312 0.500244H4.68738C2.09977 0.500244 0 2.60041 0 5.18763C0 7.77484 2.10016 9.875 4.68738 9.875Z" fill="#6FAF9F"/>
<path d="M145.312 33.3127H24.6874C22.0998 33.3127 20 35.4129 20 38.0001C20 40.5873 22.1002 42.6875 24.6874 42.6875H145.312C147.9 42.6875 150 40.5873 150 38.0001C150 35.4129 147.9 33.3127 145.312 33.3127Z" fill="#6FAF9F"/>
<path d="M145.312 66.125H51.5624C48.9748 66.125 46.875 68.2252 46.875 70.8124C46.875 73.4 48.9752 75.4998 51.5624 75.4998H145.312C147.9 75.4998 150 73.3996 150 70.8124C150 68.2248 147.9 66.125 145.312 66.125Z" fill="#6FAF9F"/>
</svg>
