<svg width="25" height="21" viewBox="0 0 25 21" fill="none" xmlns="http://www.w3.org/2000/svg">
<path d="M0 0H12.4294L18.0791 4.96303V20.8447H0V0Z" fill="#A7D6DD"/>
<path d="M18.0792 4.96303L12.4294 0V4.96303H18.0792Z" fill="#6CBBC7"/>
<path d="M10.1694 2.4823H2.25977V3.47427H10.1694V2.4823Z" fill="#6CBBC7"/>
<path d="M10.1694 5.45932H2.25977V6.45131H10.1694V5.45932Z" fill="#6CBBC7"/>
<path d="M12.9942 8.43716H2.25977V9.42914H12.9942V8.43716Z" fill="#6CBBC7"/>
<path d="M9.60439 11.415H2.25977V12.407H9.60439V11.415Z" fill="#6CBBC7"/>
<path d="M6.77953 14.3928H2.25977V15.3848H6.77953V14.3928Z" fill="#6CBBC7"/>
<path d="M5.6496 17.3706H2.25977V18.3626H5.6496V17.3706Z" fill="#6CBBC7"/>
<path d="M10.9935 16.9846L24.6135 5.02001C24.7361 4.91228 24.8333 4.78439 24.8996 4.64365C24.966 4.5029 25.0001 4.35206 25 4.19973C25 3.89211 24.8609 3.59709 24.6133 3.37958C24.3657 3.16206 24.0299 3.03986 23.6797 3.03986C23.5063 3.03982 23.3346 3.0698 23.1744 3.12807C23.0141 3.18633 22.8686 3.27175 22.7459 3.37945L9.12591 15.344L8.19214 17.8049L10.9935 16.9846Z" fill="#FF6536"/>
<path d="M9.12591 15.3441L8.19214 17.8049L10.9935 16.9846L11.9272 16.1643L10.0597 14.5238L9.12591 15.3441Z" fill="#F5CF68"/>
<path d="M21.7319 4.27066L22.746 3.37956C22.8686 3.27183 23.0142 3.18638 23.1744 3.12809C23.3347 3.06981 23.5064 3.03982 23.6798 3.03986C24.03 3.03986 24.3658 3.1621 24.6134 3.37968C24.861 3.59727 25.0001 3.89238 25.0001 4.2001C25.0002 4.35248 24.9661 4.50337 24.8997 4.64416C24.8334 4.78495 24.7362 4.91287 24.6136 5.02064L23.5995 5.91174L21.7319 4.27066Z" fill="#F5CF68"/>
</svg>
