<svg width="50" height="50" viewBox="0 0 50 50" fill="none" xmlns="http://www.w3.org/2000/svg">
<path d="M16.003 23.045C14.7715 22.6905 13.54 22.5106 12.3421 22.5106C10.4923 22.5106 8.94873 22.9333 7.75187 23.451C8.90572 19.2268 11.6776 11.9381 17.1993 11.1173C17.7106 11.0413 18.1297 10.6715 18.2692 10.1738L19.476 5.85736C19.5778 5.49232 19.5175 5.10159 19.3093 4.7848C19.101 4.46802 18.7664 4.25665 18.3914 4.20525C17.9839 4.14966 17.5685 4.12134 17.1568 4.12134C10.529 4.12134 3.96515 11.0392 1.19538 20.9445C-0.430499 26.7557 -0.907249 35.4924 3.09766 40.9916C5.33875 44.0687 8.60835 45.7119 12.8157 45.876C12.833 45.8765 12.8498 45.8771 12.8671 45.8771C18.0584 45.8771 22.6617 42.3809 24.0621 37.3758C24.8986 34.3837 24.5205 31.2457 22.9963 28.5379C21.4885 25.8604 19.0051 23.9088 16.003 23.045Z" fill="#D7D7D7"/>
<path d="M48.499 28.5384C46.9912 25.8604 44.5078 23.9088 41.5057 23.045C40.2742 22.6905 39.0427 22.5106 37.8453 22.5106C35.9955 22.5106 34.4514 22.9333 33.2546 23.451C34.4084 19.2268 37.1803 11.9381 42.7025 11.1173C43.2139 11.0413 43.6324 10.6715 43.7724 10.1738L44.9793 5.85736C45.081 5.49232 45.0207 5.10159 44.8125 4.7848C44.6048 4.46802 44.2702 4.25665 43.8946 4.20525C43.4877 4.14966 43.0723 4.12134 42.66 4.12134C36.0322 4.12134 29.4684 11.0392 26.6981 20.9445C25.0727 26.7557 24.596 35.4924 28.6014 40.9926C30.842 44.0692 34.1121 45.7129 38.3189 45.8766C38.3362 45.8771 38.353 45.8776 38.3709 45.8776C43.5616 45.8776 48.1655 42.3814 49.5658 37.3764C50.4013 34.3842 50.0226 31.2457 48.499 28.5384Z" fill="#D7D7D7"/>
</svg>
