<svg width="25" height="15" viewBox="0 0 25 15" fill="none" xmlns="http://www.w3.org/2000/svg">
<path d="M23.7236 2.25569C23.4536 1.37364 22.6619 0.678339 21.658 0.440833C19.8239 0 12.4875 0 12.4875 0C12.4875 0 5.15142 0 3.31736 0.424119C2.33274 0.661375 1.52178 1.37377 1.2517 2.25569C0.769043 3.86671 0.769043 7.20776 0.769043 7.20776C0.769043 7.20776 0.769043 10.5657 1.2517 12.1598C1.52207 13.0418 2.31343 13.7371 3.3175 13.9746C5.17074 14.4155 12.4878 14.4155 12.4878 14.4155C12.4878 14.4155 19.8239 14.4155 21.658 13.9914C22.6621 13.754 23.4536 13.0587 23.7239 12.1768C24.2064 10.5657 24.2064 7.22473 24.2064 7.22473C24.2064 7.22473 24.2258 3.86671 23.7236 2.25569ZM10.1518 10.2943V4.12118L16.2524 7.20776L10.1518 10.2943Z" fill="white"/>
</svg>
