<svg width="25" height="18" viewBox="0 0 25 18" fill="none" xmlns="http://www.w3.org/2000/svg">
<path d="M22.4312 4.44996C23.4479 3.81582 24.3031 3.02429 25 2.11288V2.11197C24.0698 2.46976 23.0802 2.70767 22.0469 2.82297C23.1094 2.2657 23.9208 1.38998 24.3021 0.334913C23.3115 0.853755 22.2177 1.21978 21.0521 1.42475C20.1115 0.544463 18.7708 0 17.3083 0C14.4708 0 12.1865 2.02321 12.1865 4.50303C12.1865 4.85991 12.2208 5.20305 12.3052 5.52973C8.04479 5.34672 4.27396 3.55319 1.74062 0.819897C1.29896 1.4943 1.03854 2.2657 1.03854 3.09566C1.03854 4.65493 1.95208 6.03668 3.31562 6.83736C2.49167 6.82363 1.68437 6.61317 1 6.28283V6.33224C1 8.52016 2.77604 10.3375 5.10625 10.7566C4.68854 10.8572 4.23438 10.9048 3.7625 10.9048C3.43437 10.9048 3.10312 10.8883 2.79271 10.828C3.45625 12.6105 5.34167 13.9218 7.58125 13.9648C5.8375 15.1626 3.62292 15.8846 1.22604 15.8846C0.80625 15.8846 0.403125 15.8681 0 15.8233C2.27083 17.109 4.96042 17.8438 7.8625 17.8438C16.9073 17.8438 22.8021 11.215 22.4312 4.44996Z" fill="white"/>
</svg>
